<svg xmlns="http://www.w3.org/2000/svg" width="21.501" height="47.5" viewBox="0 0 21.501 47.5">
  <g id="SCROLL_FLECHE" data-name="SCROLL FLECHE" transform="translate(-9367.286 -1705.092)">
    <path id="Tracé_602" data-name="Tracé 602" d="M9388.784,1735.708s-.141.018-.309.033a2.874,2.874,0,0,1-.47.016c.146-.072.016-.036-.049-.047l.023.029c-.1.036-.174-.021-.229-.008l.023.014-.006-.011a.05.05,0,0,1,.028.024c.018.011.027.024,0,.036l0-.009a.285.285,0,0,1-.1.079l-.065-.047c.074.132-.529.152-.6.21-.148,0-.127.149-.251.2-.152.105-.161-.006-.284.015-.124.047.094.038.064.071l-.19.027c.05-.058-.022-.057-.059-.064-.1.07-.354.112-.247.226-.18.063-.234.028-.29.069.041,0,.1-.015.123,0-.105,0-.007.03.024.021-.014.1-.6.185-.467.295l-.027-.017c.1.087.229.131.242.217h-.08v.077a.1.1,0,0,1-.1-.035c-.025.109-.2.176-.3.259l.405.094c-.149.033-.436.083-.352.16l-.15-.017c-.351.039-.02.164-.14.191l-.189.012.077-.079a1.549,1.549,0,0,1-.335.075s0,0,0,0a.037.037,0,0,1,.023,0l-.008.013a.1.1,0,0,1-.01.163c-.092.071-.066.183-.309.241l.088.1-.161.056-.094-.054c.095-.091.227-.29.337-.415l-.041-.027c-.068.073-.1.179-.158.221-.04.012-.194.016-.217-.064l.05.1a1.515,1.515,0,0,1-.545.453l.067,0c-.017.067-.034.133-.125.1a1.122,1.122,0,0,1-.563.313l.095.083c-.035.03-.251-.012-.1.089l-.009.1c-.045.042,0,.1-.111.122h0l-.022,0,.011,0c-.135.078.1.052-.06.137-.112,0,.112.117.039.161l-.212-.025c-.182.058-.029.159-.152.312a.35.35,0,0,1-.376-.1c.1.142.075.08.077.2a.167.167,0,0,1-.121-.08c-.139.043.019.077-.031.136.105.075.279.187.273.21l.054-.005a.182.182,0,0,1-.122.224l-.058-.031-.028.094-.081-.031-.061.124.032-.006a.265.265,0,0,1-.125.162l-.042-.022c-.238.08-.153.275-.255.448l-.073-.062c-.128.018.126.076.034.125l-.111-.045c.1.123-.084.064-.166.082l.156.043-.084.065c-.106.065-.218-.026-.284-.071l.073.108-.135-.043c.117.107-.054.033-.026.142-.052-.014-.067-.045-.1-.028l.094.2-.028-.109.18.088c.088.137-.093.1-.079.174l-.028-.062c-.018.11-.1.081-.177.115.045,0,.114,0,.113.043-.008.031-.076-.013-.113,0,.12.058.14.149.043.185a.179.179,0,0,1-.042-.025c.011.024.038.045-.009.059l-.129-.073.1.105c-.06.019.01.109-.081.067l-.016-.031-.2.246-.114-.041c.139.086-.147.119.051.186-.137.008-.047.222-.247.109-.123.166.023.335-.2.507-.229.006-.288.236-.386.364-.073.294-.107.488-.187.784-.351.078-.123.442-.365.571l.08.082a.253.253,0,0,0-.176.194.352.352,0,0,1-.144.214l-.058-2.667-.17-.316c.291-.87-.052-1.985.154-2.922l-.145-.019c-.01-.264.08-.246.105-.312-.042-2.457-.244-4.986-.07-7.2.095-.213.036-.862.137-1.029a8.386,8.386,0,0,1-.166-2.2l.017.027-.029-.339a.026.026,0,0,1,.04-.005,4,4,0,0,1,.046-1.452l.016.027c.016-2.729-.265-5.262-.072-7.969.23-1.259-.1-2.722.091-4.166a18.778,18.778,0,0,0-.045-3.444l-.175.339c-.085-1.087.089-1.594-.056-2.524l.038.052c.04-.135-.354-.211.122-1.708h.018c0-.052-.039-.051.008-.155l-.106.259a1.968,1.968,0,0,1-.143-.5.106.106,0,0,1,.083-.063l-.03-.506.112-.156c-.062-.155-.3-.084-.17-.5-.165.157-.1-.205-.185-.154a1.209,1.209,0,0,0,.079-.107,2.642,2.642,0,0,0-.153-.825,9.492,9.492,0,0,1-.523,1.224c.044-.347-.021-.091-.076-.023l.041.023c-.039.208-.144.208-.173.312a.121.121,0,0,0,.029-.006l-.014-.013a.03.03,0,0,1,.041.007c.022,0,.04.007.034.063l-.011-.011a1.322,1.322,0,0,1-.008.3h-.088c.168.154-.25,1.036-.255,1.243-.11.208.029.465-.025.725-.026.413-.127.207-.2.415-.054.259.1-.053.108.051l-.121.311c-.011-.18-.063-.082-.1-.049-.014.269-.174.692,0,.774-.082.362-.152.363-.16.519.031-.052.06-.156.1-.156-.077.145.02.069.036.01.077.221-.314,1.149-.122,1.2h-.035c.143.051.281-.032.361.123l-.063.1.062.155c-.046.1-.084.053-.1.053a3.382,3.382,0,0,1-.028.912l.389-.325c-.09.259-.271.725-.145.776l-.131.156c-.248.519.11.362.035.569l-.141.261v-.259a3.2,3.2,0,0,1-.21.57s0,0,0,0,.013-.024.021-.025l0,.036c.072.031.121.166.117.349a2.166,2.166,0,0,1-.062.876l.146.1-.086.311h-.116c.006-.3-.041-.877-.048-1.268l-.054-.007c0,.232.054.5.043.649-.021.067-.119.228-.2.16l.089.111a5.972,5.972,0,0,1-.107,1.588l.058-.07c.035.16.069.32-.025.365a3.708,3.708,0,0,1-.234,1.3l.138.069c-.007.1-.214.257-.021.306l.062.219c-.011.14.068.226-.01.385h0c-.006.01-.01.02-.017.03l.012,0c-.06.317.122,0,.046.36-.1.117.174.128.143.305l-.2.178c-.111.321.086.375.088.839-.068.223-.235.331-.385.184.181.2.117.092.205.361-.074.042-.09.013-.156-.046-.086.239.067.147.063.328.14.052.361.112.371.17l.043-.07a.916.916,0,0,1,.042.621l-.07-.008.036.236-.09.015.029.337.024-.046a1.38,1.38,0,0,1,0,.488l-.051-.005c-.153.42.052.766.069,1.257l-.1-.064c-.1.168.156.046.106.245l-.124.01c.164.175-.034.227-.1.348l.163-.057-.033.228c-.054.251-.207.155-.293.118l.131.171-.146.034c.169.124-.026.125.064.344-.054.018-.085-.037-.108.037l.205.36-.092-.217.211.026c.162.226-.021.307.038.469l-.062-.111c.052.264-.038.278-.084.428.039-.046.1-.117.125-.01.013.079-.074.043-.1.117.141.017.215.207.149.379a.093.093,0,0,1-.052-.017c.023.044.06.067.025.143l-.156-.044.149.146c-.042.1.071.241-.034.228l-.031-.056-.035.742-.125.011c.172.073-.063.4.151.38-.116.14.085.551-.158.469-.017.488.218.75.1,1.344-.2.212-.136.79-.155,1.17.088.744.167,1.224.236,1.984-.285.458.1,1.14-.057,1.632l.113.134c-.18.327.044.826-.131,1.285a.849.849,0,0,1,.07.2c.006-.021.027-.052.1-.062-.051.131.014.4-.131.377l-.015-.033c-.145-.019.069.4-.056.544l.154-.081-.025.248-.029-.066c.348,1.077-.142,1.565.176,2.577-.169-.134.09.2-.095.213-.231.256.052.473.114.682a.052.052,0,0,1,.034.014l-.021.366c-.234-.218.194.263,0,.063a30.061,30.061,0,0,0-.058,3.181c-.109-.208-.221-.415-.346-.618s-.262-.407-.385-.608q-.092-.151-.179-.3c-.062-.1-.12-.2-.175-.3a3.815,3.815,0,0,1-.271-.6c.048-.106-.142-.3-.088-.389a1.574,1.574,0,0,1-.611-.664l.02,0c-.031-.034-.066-.066-.1-.1a.051.051,0,0,1,.034-.017c-.2-.074-.228-.314-.291-.485l.02,0a10.882,10.882,0,0,0-1.038-1.225c-.087-.1-.183-.195-.273-.293s-.179-.2-.264-.3a7.749,7.749,0,0,1-.476-.639,1.611,1.611,0,0,0-.5-.63l-.082-.074-.086-.073c-.056-.049-.111-.1-.164-.151a1.459,1.459,0,0,1-.266-.345c.009-.037-.044-.114-.13-.21-.043-.048-.093-.1-.15-.154s-.123-.107-.187-.16a3.634,3.634,0,0,0-.6-.431l-.026.187c-.389-.261-.43-.486-.83-.659l.044-.007c-.007-.029-.088,0-.184-.036a.329.329,0,0,1-.146-.136.86.86,0,0,1-.068-.144c-.011-.029-.021-.061-.03-.1s-.021-.072-.031-.113l.012-.01c-.02-.012-.044.008-.046-.045l.011.127a.781.781,0,0,1-.266-.049.1.1,0,0,1,.039-.063l-.19-.114.026-.1c-.094-.005-.237.149-.282-.033-.063.135-.138,0-.179.066.007-.017.012-.047.02-.073a.777.777,0,0,0-.378-.123s.021.112.035.244a1.327,1.327,0,0,1,0,.367c-.082-.112-.044-.011-.061.038l.036-.018c.039.075-.033.134-.02.177a.178.178,0,0,0,.018-.018l-.014,0a.058.058,0,0,1,.031-.022c.015-.013.03-.021.044,0l-.011,0a.237.237,0,0,1,.092.08l-.061.05c.166-.054.156.4.214.454-.016.115.163.1.2.2.106.121-.028.123-.021.217.039.1.059-.069.094-.046l.007.146c-.062-.04-.071.013-.086.04.071.076.082.27.235.2.049.137,0,.174.038.218.007-.03,0-.072.023-.091-.013.078.035.007.03-.017.063.007.088.124.115.229s.061.194.14.15l-.026.018c.122-.061.2-.156.307-.156l-.018.061.091.009c0,.052-.048.058-.062.067.124.032.168.167.242.257l.2-.287c.008.116,0,.333.115.282l-.054.108c-.048.268.185.044.185.139l-.038.143-.07-.072a.709.709,0,0,1-.007.261h0a.027.027,0,0,1,.01-.018l.013.008a.165.165,0,0,1,.187.038c.056.08.194.084.19.271l.144-.043.018.127-.092.056c-.079-.086-.271-.22-.384-.323l-.043.025c.063.063.177.109.21.156a.157.157,0,0,1-.14.143l.129-.017a.835.835,0,0,1,.331.491l.028-.047c.069.028.138.057.073.114a.583.583,0,0,1,.145.472l.129-.044c.021.032-.107.169.061.1l.1.035c.025.045.11.034.086.115h0a.141.141,0,0,1-.007.016l.009-.006c.028.118.1-.056.125.083-.052.077.174-.041.192.023l-.119.138c-.015.141.162.07.277.2,0,.094-.117.2-.277.22.2-.021.12-.025.259.014a.222.222,0,0,1-.143.054c-.014.1.092.013.13.067a1.769,1.769,0,0,1,.351-.109l.02-.039c.107.024.186.071.178.167l-.061.027.084.055-.072.042.1.088.01-.024c.028.018.115.082.11.145l-.044.019c-.037.188.222.2.344.345l-.1.022c-.051.091.145-.049.145.031l-.105.053c.18-.013.019.082-.009.143l.13-.082.019.082c.008.1-.146.128-.228.151h.148l-.118.067c.173-.029,0,.048.129.078-.044.027-.083.022-.087.054l.255.029-.126-.03.189-.074c.189.006.047.1.133.127l-.078-.01c.1.06.026.1.018.161.024-.029.06-.072.107-.051.027.019-.056.041-.061.072.126-.048.235-.02.211.058a.2.2,0,0,1-.049.014c.029,0,.065,0,.051.034l-.146.045.16-.011c-.018.046.111.048.016.083l-.039-.005.115.241-.108.049c.167-.04.022.147.209.062-.076.085.185.139-.048.2.078.156.347.152.348.379-.146.137.02.293.07.419a6.1,6.1,0,0,1,.564.547c-.187.234.284.332.218.538l.129.009c-.058.079-.011.141.034.21a.229.229,0,0,1,.044.242.3.3,0,0,1,.095.044c0-.008.018-.025.084-.048-.027.057.072.125-.065.159l-.019-.007c-.139.034.123.11.028.191l.133-.068.014.087-.038-.013a.444.444,0,0,1,.286.4.429.429,0,0,0,.241.4c-.178,0,.112.044-.062.094-.187.14.112.143.2.2a.116.116,0,0,1,.034,0l.029.126c-.253-.017.222.041,0,.022a1.1,1.1,0,0,0,.123.547,2.153,2.153,0,0,1,.2.569l.053-.028c.018.1.125.2.053.29s.2.128.214.154c.112.054-.021.147-.048.139.061.074.278.118.227.247-.176.072.275.289.059.33l.019,0c-.116.176.182.277.083.461a.225.225,0,0,1-.033,0q.331.1.663.21c0,.021-.01.042-.016.064a.146.146,0,0,1-.032-.025l.681.968.743-.278.6-.842-.024-.41c.187-.059.372-.117.558-.173l.047-.422c.016-.141.029-.282.054-.422l.437-.6c.066-.267.157-.528.238-.792s.161-.529.262-.789l-.113-.151c.408-.231.243-.71.6-.977l-.133-.046c.035-.094.116-.063.151-.079.094-.214.172-.435.26-.652s.182-.433.277-.646q.07-.159.146-.315c.056-.1.112-.2.173-.3a4.131,4.131,0,0,1,.4-.551c.124-.041.208-.274.334-.294a1.3,1.3,0,0,1,.317-.781l.008.015c.015-.041.032-.081.049-.121a.056.056,0,0,1,.037.013c-.028-.171.219-.32.368-.452l.008.015c.307-.441.577-.877.853-1.312.067-.109.146-.214.224-.319s.158-.208.243-.31a4.049,4.049,0,0,1,.576-.586,1.736,1.736,0,0,0,.589-.58l.063-.085.066-.083c.045-.055.092-.11.143-.163a1.674,1.674,0,0,1,.354-.288.509.509,0,0,0,.223-.15c.048-.044.1-.1.151-.151s.109-.113.164-.172a3,3,0,0,0,.426-.54l-.234.01c.252-.357.549-.4.724-.738l.013.034c.037-.009-.014-.069.029-.149a.339.339,0,0,1,.157-.13,1.208,1.208,0,0,1,.173-.067,1.888,1.888,0,0,1,.262-.061l.013.009c.015-.016-.011-.034.057-.037l-.163.013c.017-.065,0-.146.055-.209a.152.152,0,0,1,.082.027l.14-.153.133.019c0-.075-.193-.185.037-.226-.172-.047-.008-.11-.085-.142.021.005.059.009.092.014C9388.693,1735.938,9388.809,1735.786,9388.784,1735.708Zm-12.321,11.133-.1.023c-.048-.082.022-.1.044-.131,0,.036,0,.073-.007.109l.061-.049Zm2.213-1.007,0-.109a.2.2,0,0,1,.094.009C9378.723,1745.755,9378.713,1745.81,9378.676,1745.834Z" fill="white" />
  </g>
</svg>
